<svg width="40" height="60" viewBox="0 0 40 60" fill="none" xmlns="http://www.w3.org/2000/svg">
<path d="M18.0625 54.2068C18.6117 53.9955 18.9474 53.6331 19.0694 52.999C19.283 51.761 19.5576 50.5531 19.8017 49.3452C19.8932 48.9829 19.8017 48.7413 19.405 48.7715C17.7879 48.9225 16.476 48.1374 15.0725 47.5637C14.7368 47.4127 14.3097 47.3523 13.9436 47.4429C13.669 47.5033 13.2418 47.8656 13.852 48.1676C14.4622 48.4696 13.852 48.8319 13.913 49.1641C13.6384 49.1641 13.3638 49.1641 13.1198 49.1037C12.7841 48.9829 12.5095 48.7413 12.1739 48.6205C12.0519 48.5601 11.8688 48.5903 11.7773 48.6205C11.2281 48.9527 11.2586 48.9527 10.9535 48.4998C9.64149 46.5672 8.60412 44.5138 8.36003 42.0981C8.36003 42.5511 8.29901 42.9738 8.2685 43.4268C8.2685 43.8797 8.20747 44.3327 8.20747 44.7856C8.20747 48.8319 8.90923 52.7876 9.61098 56.7433C9.73303 57.3473 9.88558 57.921 9.9466 58.5249C9.9466 58.8873 9.9466 59.3704 9.73303 59.5818C9.42792 59.9139 8.42105 59.6422 8.11594 59.2798C7.90236 59.0081 7.7193 58.7061 7.47521 58.4343C6.6209 57.468 5.70557 56.6829 4.4241 56.2602C3.78337 56.0488 3.14264 55.6261 2.65446 55.1731C2.01373 54.539 1.52555 53.7841 0.518688 53.5727C0.305111 53.5425 0.0610221 53.0292 0.0610221 52.7272C0 51.5194 0 50.3115 0 49.1037C0 48.4998 0.2746 48.077 0.823799 47.775C1.58658 47.3825 2.34935 46.9597 3.08162 46.5068C4.45461 45.6613 5.46148 44.4535 5.98017 42.9436C6.37681 41.7962 6.92601 40.8299 8.08543 40.3166C8.66514 40.0448 8.72616 39.5617 8.5431 39.0483C7.93287 37.4479 7.32265 35.8475 6.6209 34.3075C6.40732 33.8848 5.7971 33.6734 5.36995 33.3412C5.15637 33.16 4.79024 32.9487 5.40046 32.7977C5.55301 32.7675 5.7971 32.5561 5.7971 32.4353C5.73608 31.4389 5.7971 30.2008 4.85126 29.7177C3.63082 29.0534 3.53928 28.0569 3.44775 26.9396C3.44775 26.5471 3.35622 26.1545 3.32571 25.762C3.17315 26.1545 2.99008 26.5169 2.83753 26.9094C2.77651 27.0302 2.83753 27.2114 2.80702 27.3624C2.80702 27.453 2.68497 27.5435 2.65446 27.5435C2.56293 27.5435 2.44088 27.4831 2.41037 27.3926C2.25782 27.0302 2.07475 26.6678 2.01373 26.2753C1.76964 25.1882 1.55606 24.1012 1.373 23.0141C1.31198 22.6517 1.46453 22.2592 1.52555 21.8666C1.52555 21.8062 1.67811 21.7459 1.76964 21.7459C1.80015 21.7459 1.9222 21.8968 1.89169 21.927C1.55606 22.8631 2.37986 23.2859 2.80702 23.8596C3.08162 24.222 3.38673 24.5541 3.69184 24.8863C3.75286 24.9467 3.93593 24.9467 4.05797 24.9467C4.08848 24.9467 4.1495 24.7353 4.11899 24.6749C3.81388 24.2219 3.53928 23.7388 3.17315 23.3463C2.62395 22.7725 2.28833 22.2894 2.65446 21.3533C2.95957 20.5984 2.80702 19.6623 2.83753 18.8168C2.89855 17.458 2.71548 16.069 3.05111 14.7705C3.44775 13.2305 3.8749 11.7207 4.1495 10.1505C4.48513 8.06694 5.94966 6.58732 7.56674 5.31908C8.32952 4.74535 9.15332 4.26221 9.48894 3.26573C9.61098 2.90338 10.2212 2.60142 10.6789 2.45043C13.3638 1.66533 16.0183 0.880228 18.7338 0.185713C20.3509 -0.237034 21.9375 0.125321 23.524 0.638658C25.4767 1.30298 27.46 1.9371 29.4432 2.60142C30.2365 2.87318 31.0908 3.05436 31.3043 4.14143C31.3654 4.47358 31.7925 4.74535 32.0976 5.01712C32.7689 5.62104 33.5011 6.16458 34.1419 6.7987C35.6674 8.27832 36.4607 10.0599 36.5522 12.1736C36.5522 12.5662 36.5217 13.0493 36.7048 13.3513C37.8032 15.1631 37.5591 17.1258 37.4676 19.0886C37.4676 19.5415 37.376 19.9945 37.4066 20.4474C37.4676 20.9909 37.3455 21.6553 38.2914 21.7157C38.5355 21.7157 38.9321 22.5008 38.9321 22.9235C38.9321 23.8596 38.9321 24.8863 38.5965 25.7318C37.7422 27.9965 36.7048 30.1706 35.7284 32.3749C35.4538 33.0091 35.0877 33.5828 34.2944 33.7942C33.9283 33.8848 33.5927 34.3679 33.4096 34.7303C32.7689 36.1495 32.1892 37.5989 31.6095 39.0483C31.2433 39.9844 31.2433 40.075 32.1892 40.5883C33.0435 41.0715 33.5622 41.766 33.8673 42.6417C34.5385 44.846 36.003 46.3558 38.0473 47.3825C38.4134 47.5637 38.749 47.775 39.1152 47.9864C39.6644 48.3186 40 48.8017 39.9695 49.466C39.9695 50.5833 39.939 51.6704 39.9085 52.7876C39.9085 53.3916 39.6339 53.7539 38.9626 53.9653C38.4744 54.1163 38.0778 54.5692 37.6506 54.9014C36.9184 55.4147 36.2471 56.1092 35.4233 56.4112C33.9893 56.9547 32.8299 57.8002 32.0061 59.0383C31.5484 59.7026 30.9992 59.9139 30.2365 59.9139C27.0328 59.9139 23.8291 59.9139 20.6255 59.9743C19.0694 59.9743 17.6964 59.7026 16.9336 58.1324C16.7506 57.77 16.5065 57.7398 16.2319 58.0418C15.9268 58.3739 15.6827 58.7665 15.3471 59.0685C15.103 59.31 14.7674 59.4912 14.4622 59.612C14.3097 59.6724 14.0961 59.5516 13.8825 59.4912C13.913 59.31 13.913 59.0986 14.0351 58.9779C14.8589 58.0116 15.7132 57.1057 16.537 56.1394C17.0862 55.5053 17.5744 54.8108 18.0931 54.1163L18.0625 54.1465V54.2068ZM19.8932 29.2949C19.6491 27.0604 19.405 25.1278 19.1915 23.1953C19.1609 22.8933 19.0694 22.5914 19.0389 22.2894C18.9779 21.6251 18.5507 21.6553 18.032 21.7761C17.3303 21.9572 17.1777 22.5612 16.9641 23.1349C15.8352 25.9431 13.8825 27.2718 10.8314 27.0604C9.64149 27 8.42105 26.698 7.29214 26.3055C5.70557 25.7922 5.5225 25.8827 5.64455 27.5737C5.67506 28.0569 5.7971 28.5702 5.91915 29.0534C5.91915 29.1439 6.0717 29.2949 6.16323 29.3251C7.29214 29.5063 7.56674 30.4122 7.62776 31.2577C7.7193 32.4655 8.23799 33.462 8.75667 34.4887C9.18383 35.3342 9.54996 36.2099 9.91609 37.1158C10.3127 38.1424 10.6484 39.1993 11.0755 40.226C11.2281 40.5883 11.4111 41.0413 11.6857 41.2225C12.5095 41.7358 12.9062 42.5511 13.3638 43.3362C13.4554 43.5174 13.8215 43.7891 13.852 43.7589C14.5843 43.155 14.8284 43.9099 15.1945 44.2119C16.3539 45.2084 17.7574 45.6613 19.2525 45.6915C20.6255 45.6915 21.1747 45.0876 21.0526 43.7287C21.0526 43.5174 20.9611 43.3362 20.9306 43.155C20.778 42.2793 20.6255 41.3734 20.5339 40.4977C20.4729 40.0448 20.3814 39.8032 19.8017 39.8334C19.222 39.8636 18.6117 39.8032 18.0625 39.5919C17.3913 39.3503 16.8116 39.0483 16.0793 39.5315C15.5912 39.8334 15.0725 39.3201 15.103 38.6256C15.103 38.5652 15.4081 38.4444 15.4081 38.4444C15.8963 39.1691 16.2319 38.6256 16.6285 38.3236C17.2693 37.8103 17.8795 37.0554 18.7948 37.9915C18.9779 38.1726 19.3745 38.1424 19.6796 38.1726C20.0763 38.2028 20.5645 38.3538 20.595 37.7499C20.656 37.2365 20.6255 36.5722 19.9847 36.542C18.8863 36.4816 17.849 35.9683 16.6895 36.5118C16.1098 36.7836 15.3166 36.6326 14.6148 36.6326C14.4928 36.6326 14.4012 36.4816 14.2792 36.391C14.3707 36.2703 14.4317 36.1495 14.5538 36.0589C15.8658 35.304 17.2998 35.0322 18.7643 34.9416C20.0153 34.8812 19.9542 34.8812 19.8017 33.6734C19.7407 33.1902 19.5576 33.1299 19.1304 33.0997C18.8558 33.0997 18.4592 32.9487 18.3677 32.7675C18.1236 32.2844 17.7574 32.224 17.2693 32.1636C16.476 32.0428 15.8658 31.5898 15.6827 30.7745C15.6522 30.6236 15.8963 30.382 15.9878 30.2008C16.3844 30.7141 16.8116 30.8349 17.2387 30.2008C17.3608 30.3216 17.4828 30.4122 17.5744 30.5632C17.91 31.1369 18.4287 31.2577 19.0084 31.1973C19.6491 31.1369 19.7407 30.5632 19.8627 30.08C19.9542 29.7479 19.9542 29.3855 19.9542 29.3251L19.8932 29.2949ZM8.75667 9.33519C8.60412 10.2713 8.39054 11.0866 8.36003 11.9321C8.29901 13.6533 8.14645 15.3442 7.23112 16.8541C6.95652 17.307 7.29214 17.3372 7.65828 17.307C7.81083 17.307 7.96339 17.2164 8.11594 17.2164C11.0145 16.8541 13.8825 16.7635 16.476 18.4847C16.9947 18.847 17.6964 18.9678 18.3371 19.0886C18.8253 19.1792 19.344 19.0886 19.5881 18.5149C20.4119 16.4917 21.2052 14.4686 21.0221 12.2642C20.8391 9.90891 20.5339 7.5838 20.3204 5.22849C20.2593 4.59437 19.9847 4.383 19.405 4.26221C18.1846 3.96025 17.0252 4.14143 15.8352 4.50378C14.7368 4.83594 13.6079 5.1379 12.4485 5.25869C10.923 5.40967 9.672 6.13438 8.39054 6.82889C8.05492 7.01007 7.7193 7.40262 7.65828 7.73478C7.38368 9.1842 6.71243 10.4524 6.19374 11.8113C6.01068 12.3246 5.94966 12.8983 6.04119 13.4419C6.10221 13.9854 6.40732 14.5289 6.6209 15.0423C6.68192 14.4987 6.74294 13.9854 6.80397 13.4419C6.83448 13.0493 6.80397 12.6266 6.92601 12.234C7.1701 11.0866 7.62776 10.0297 8.78718 9.30499L8.75667 9.33519ZM15.6522 19.8435C15.3776 19.5415 15.2555 19.3905 15.103 19.2698C13.0282 17.609 8.69565 17.5788 6.6209 19.1792C6.0717 19.6019 6.01068 20.0851 6.31579 20.6286C6.43783 20.84 6.68192 20.9608 6.86499 21.1117C6.98703 20.9306 7.13959 20.7192 7.20061 20.5078C7.4447 19.7831 7.84134 19.1188 8.66514 19.3C9.27536 19.4509 9.73303 19.1792 10.2822 19.1188C10.984 19.0282 11.7162 18.9376 12.3875 19.0584C13.2723 19.2094 14.1266 19.5717 14.9809 19.8435C15.1335 19.8737 15.286 19.8435 15.6522 19.8435ZM19.1609 19.7529C18.5812 19.7529 18.0625 19.7227 17.6049 19.7529C17.3608 19.7529 17.1472 19.9945 16.9336 20.1455C17.1167 20.4474 17.2693 20.7192 17.4523 21.0211C17.6049 20.8702 17.7574 20.7192 17.9405 20.5984C18.3066 20.3266 18.7033 20.0851 19.1915 19.7529H19.1609Z" fill="url(#paint0_linear_9_83)"/>
<path d="M18.0934 54.1466C17.6968 54.4184 17.3002 54.358 17.0256 53.9956C16.5679 53.4521 15.6526 53.4219 15.5 52.5764C16.1102 52.8784 16.7204 53.1803 17.3002 53.5125C17.6053 53.6937 17.8188 53.9654 18.0629 54.1768H18.0934V54.1466Z" fill="url(#paint1_linear_9_83)"/>
<path d="M10.4043 4.3833C10.1602 4.59467 9.91613 4.83624 9.64153 4.98723C7.44474 6.07429 6.25481 7.85587 5.49203 10.1206C5.06488 11.419 5.00385 12.7477 4.75977 14.0461" stroke="url(#paint2_linear_9_83)" stroke-width="0.3" stroke-linecap="round" stroke-linejoin="round"/>
<path d="M17.5744 56.9247C16.7811 56.8643 16.1709 57.1965 15.7437 57.8306C15.2861 58.5251 14.7979 59.1593 13.9131 59.3404" stroke="url(#paint3_linear_9_83)" stroke-width="0.3" stroke-linecap="round" stroke-linejoin="round"/>
<path d="M15.4385 46.0542C15.591 46.1448 15.7436 46.2656 15.8961 46.3562" stroke="url(#paint4_linear_9_83)" stroke-width="0.3" stroke-linecap="round" stroke-linejoin="round"/>
<path d="M21.2356 19.7833C20.2287 19.5719 19.2218 19.4813 18.1844 19.4209C17.2081 19.3907 16.2317 19.3303 15.2249 18.6358C13.2111 17.2166 10.7397 17.2166 8.42091 17.7299C7.23098 18.0017 6.16309 17.9413 5.03418 17.8205" stroke="url(#paint5_linear_9_83)" stroke-width="0.3" stroke-linecap="round" stroke-linejoin="round"/>
<path d="M9.48895 40.9207C7.65828 41.0716 7.56675 41.1924 7.20062 42.8834C7.10909 43.3364 6.98704 43.7893 6.89551 44.2422" stroke="url(#paint6_linear_9_83)" stroke-width="0.3" stroke-linecap="round" stroke-linejoin="round"/>
<path d="M20.0155 20.9913C19.2527 20.9913 18.5509 20.6591 17.8187 21.3838C17.4525 21.7462 16.5372 21.5348 15.8965 21.5952" stroke="url(#paint7_linear_9_83)" stroke-width="0.3" stroke-linecap="round" stroke-linejoin="round"/>
<path d="M15.8963 30.2009C15.8047 30.986 16.3234 31.3182 16.9641 31.3786C17.6049 31.439 18.1541 31.6202 18.6423 32.0127C19.283 32.4958 19.8627 31.8617 20.4729 31.8617" stroke="url(#paint8_linear_9_83)" stroke-width="0.3" stroke-linecap="round" stroke-linejoin="round"/>
<path d="M22.6083 35.0325C21.1743 35.4552 19.7403 35.8176 18.1842 35.5156C17.574 35.3948 16.8722 35.7874 16.201 35.9384C15.5297 36.0893 14.889 36.2403 14.2178 36.3913" stroke="url(#paint9_linear_9_83)" stroke-width="0.3" stroke-linecap="round" stroke-linejoin="round"/>
<path d="M8.72578 9.36572C7.84096 10.5736 7.47483 11.9324 7.47483 13.4422C7.47483 14.1065 7.38329 14.7709 7.16972 15.405C6.86461 16.4015 5.79672 16.3109 5.06445 16.6128" stroke="url(#paint10_linear_9_83)" stroke-width="0.3" stroke-linecap="round" stroke-linejoin="round"/>
<path d="M6.28516 29.2952C6.43771 30.2916 6.65129 31.3183 6.71231 32.3148C6.74282 32.7677 6.98691 33.0395 7.16998 33.3717C8.29889 35.576 9.30575 37.8407 9.79393 40.3168C9.79393 40.4074 9.70239 40.5282 9.64137 40.6188" stroke="url(#paint11_linear_9_83)" stroke-width="0.3" stroke-linecap="round" stroke-linejoin="round"/>
<path d="M5.82717 24.3127C5.61359 24.6147 5.43052 24.9167 5.21694 25.2186C4.24059 26.4869 4.17957 27.423 5.06439 28.8422C5.40001 29.3555 5.76614 29.8387 6.13228 30.352" stroke="url(#paint12_linear_9_83)" stroke-width="0.3" stroke-linecap="round" stroke-linejoin="round"/>
<path d="M2.0136 21.7461C1.37287 21.8971 1.4644 22.4406 1.58645 22.803C1.86104 23.5277 2.50178 24.192 2.5628 24.9167C2.59331 25.581 2.47127 26.3057 2.50178 27.0304C2.50178 27.1814 2.59331 27.3324 2.65433 27.4834" stroke="url(#paint13_linear_9_83)" stroke-width="0.3" stroke-linecap="round" stroke-linejoin="round"/>
<path d="M37.8639 23.2559C37.2536 23.4672 36.6434 23.6484 36.0332 23.8598" stroke="url(#paint14_linear_9_83)" stroke-width="0.3" stroke-linecap="round" stroke-linejoin="round"/>
<path d="M14.218 43.4873C14.4926 44.1516 14.4316 44.8159 14.0654 45.4501" stroke="url(#paint15_linear_9_83)" stroke-width="0.3" stroke-linecap="round" stroke-linejoin="round"/>
<path d="M11.6247 47.4128C11.3501 48.047 11.045 48.6811 11.7773 49.2246" stroke="url(#paint16_linear_9_83)" stroke-width="0.3" stroke-linecap="round" stroke-linejoin="round"/>
<path d="M8.57324 19.3303C8.66478 19.9946 8.78682 20.6288 8.87835 21.2931" stroke="url(#paint17_linear_9_83)" stroke-width="0.3" stroke-linecap="round" stroke-linejoin="round"/>
<path d="M15.5908 52.6973C16.2621 53.1502 16.9028 53.6032 17.574 54.0561" stroke="url(#paint18_linear_9_83)" stroke-width="0.3" stroke-linecap="round" stroke-linejoin="round"/>
<path d="M19.1002 39.5619C18.7951 38.8371 17.8493 38.3238 17.117 38.505C16.9034 38.5654 16.7204 38.6862 16.5068 38.8069C15.9779 39.0686 15.5203 38.9177 15.1338 38.354" stroke="url(#paint19_linear_9_83)" stroke-width="0.3" stroke-linecap="round" stroke-linejoin="round"/>
<path d="M17.2697 30.2009C17.2087 30.5633 17.1782 30.8954 17.1172 31.2578" stroke="url(#paint20_linear_9_83)" stroke-width="0.3" stroke-linecap="round" stroke-linejoin="round"/>
<defs>
<linearGradient id="paint0_linear_9_83" x1="19.9857" y1="0" x2="19.9857" y2="59.9743" gradientUnits="userSpaceOnUse">
<stop stop-color="#4D7180"/>
<stop offset="1" stop-color="#4D7180" stop-opacity="0"/>
</linearGradient>
<linearGradient id="paint1_linear_9_83" x1="16.7967" y1="52.5764" x2="16.7967" y2="54.3155" gradientUnits="userSpaceOnUse">
<stop stop-color="#4D7180"/>
<stop offset="1" stop-color="#4D7180" stop-opacity="0"/>
</linearGradient>
<linearGradient id="paint2_linear_9_83" x1="7.58204" y1="4.3833" x2="7.58204" y2="14.0461" gradientUnits="userSpaceOnUse">
<stop stop-color="#4D7180"/>
<stop offset="1" stop-color="#4D7180" stop-opacity="0"/>
</linearGradient>
<linearGradient id="paint3_linear_9_83" x1="15.7437" y1="56.9177" x2="15.7437" y2="59.3404" gradientUnits="userSpaceOnUse">
<stop stop-color="#4D7180"/>
<stop offset="1" stop-color="#4D7180" stop-opacity="0"/>
</linearGradient>
<linearGradient id="paint4_linear_9_83" x1="15.6673" y1="46.0542" x2="15.6673" y2="46.3562" gradientUnits="userSpaceOnUse">
<stop stop-color="#4D7180"/>
<stop offset="1" stop-color="#4D7180" stop-opacity="0"/>
</linearGradient>
<linearGradient id="paint5_linear_9_83" x1="13.1349" y1="17.4167" x2="13.1349" y2="19.7833" gradientUnits="userSpaceOnUse">
<stop stop-color="#4D7180"/>
<stop offset="1" stop-color="#4D7180" stop-opacity="0"/>
</linearGradient>
<linearGradient id="paint6_linear_9_83" x1="8.19223" y1="40.9207" x2="8.19223" y2="44.2422" gradientUnits="userSpaceOnUse">
<stop stop-color="#4D7180"/>
<stop offset="1" stop-color="#4D7180" stop-opacity="0"/>
</linearGradient>
<linearGradient id="paint7_linear_9_83" x1="17.956" y1="20.9153" x2="17.956" y2="21.6027" gradientUnits="userSpaceOnUse">
<stop stop-color="#4D7180"/>
<stop offset="1" stop-color="#4D7180" stop-opacity="0"/>
</linearGradient>
<linearGradient id="paint8_linear_9_83" x1="18.1793" y1="30.2009" x2="18.1793" y2="32.1942" gradientUnits="userSpaceOnUse">
<stop stop-color="#4D7180"/>
<stop offset="1" stop-color="#4D7180" stop-opacity="0"/>
</linearGradient>
<linearGradient id="paint9_linear_9_83" x1="18.413" y1="35.0325" x2="18.413" y2="36.3913" gradientUnits="userSpaceOnUse">
<stop stop-color="#4D7180"/>
<stop offset="1" stop-color="#4D7180" stop-opacity="0"/>
</linearGradient>
<linearGradient id="paint10_linear_9_83" x1="6.89512" y1="9.36572" x2="6.89512" y2="16.6128" gradientUnits="userSpaceOnUse">
<stop stop-color="#4D7180"/>
<stop offset="1" stop-color="#4D7180" stop-opacity="0"/>
</linearGradient>
<linearGradient id="paint11_linear_9_83" x1="8.03954" y1="29.2952" x2="8.03954" y2="40.6188" gradientUnits="userSpaceOnUse">
<stop stop-color="#4D7180"/>
<stop offset="1" stop-color="#4D7180" stop-opacity="0"/>
</linearGradient>
<linearGradient id="paint12_linear_9_83" x1="5.28635" y1="24.3127" x2="5.28635" y2="30.352" gradientUnits="userSpaceOnUse">
<stop stop-color="#4D7180"/>
<stop offset="1" stop-color="#4D7180" stop-opacity="0"/>
</linearGradient>
<linearGradient id="paint13_linear_9_83" x1="2.07668" y1="21.7461" x2="2.07668" y2="27.4834" gradientUnits="userSpaceOnUse">
<stop stop-color="#4D7180"/>
<stop offset="1" stop-color="#4D7180" stop-opacity="0"/>
</linearGradient>
<linearGradient id="paint14_linear_9_83" x1="36.9485" y1="23.2559" x2="36.9485" y2="23.8598" gradientUnits="userSpaceOnUse">
<stop stop-color="#4D7180"/>
<stop offset="1" stop-color="#4D7180" stop-opacity="0"/>
</linearGradient>
<linearGradient id="paint15_linear_9_83" x1="14.227" y1="43.4873" x2="14.227" y2="45.4501" gradientUnits="userSpaceOnUse">
<stop stop-color="#4D7180"/>
<stop offset="1" stop-color="#4D7180" stop-opacity="0"/>
</linearGradient>
<linearGradient id="paint16_linear_9_83" x1="11.5493" y1="47.4128" x2="11.5493" y2="49.2246" gradientUnits="userSpaceOnUse">
<stop stop-color="#4D7180"/>
<stop offset="1" stop-color="#4D7180" stop-opacity="0"/>
</linearGradient>
<linearGradient id="paint17_linear_9_83" x1="8.7258" y1="19.3303" x2="8.7258" y2="21.2931" gradientUnits="userSpaceOnUse">
<stop stop-color="#4D7180"/>
<stop offset="1" stop-color="#4D7180" stop-opacity="0"/>
</linearGradient>
<linearGradient id="paint18_linear_9_83" x1="16.5824" y1="52.6973" x2="16.5824" y2="54.0561" gradientUnits="userSpaceOnUse">
<stop stop-color="#4D7180"/>
<stop offset="1" stop-color="#4D7180" stop-opacity="0"/>
</linearGradient>
<linearGradient id="paint19_linear_9_83" x1="17.117" y1="38.354" x2="17.117" y2="39.5619" gradientUnits="userSpaceOnUse">
<stop stop-color="#4D7180"/>
<stop offset="1" stop-color="#4D7180" stop-opacity="0"/>
</linearGradient>
<linearGradient id="paint20_linear_9_83" x1="17.1935" y1="30.2009" x2="17.1935" y2="31.2578" gradientUnits="userSpaceOnUse">
<stop stop-color="#4D7180"/>
<stop offset="1" stop-color="#4D7180" stop-opacity="0"/>
</linearGradient>
</defs>
</svg>
